<svg xmlns="http://www.w3.org/2000/svg" width="375" viewBox="0 0 375 375" height="375" version="1.0"><defs><clipPath id="a"><path d="M 201 149 L 255.203125 149 L 255.203125 217.839844 L 201 217.839844 Z M 201 149"/></clipPath><clipPath id="b"><path d="M 119.453125 143 L 170 143 L 170 217.839844 L 119.453125 217.839844 Z M 119.453125 143"/></clipPath><clipPath id="c"><path d="M 197 103.105469 L 219 103.105469 L 219 125 L 197 125 Z M 197 103.105469"/></clipPath></defs><path fill="#262261" d="M 242.601562 116.613281 C 243.601562 116.160156 244.855469 116.546875 245.378906 117.546875 C 245.835938 118.550781 245.449219 119.804688 244.445312 120.257812 C 242.601562 121.195312 240.480469 122.378906 238.085938 123.5625 C 225.097656 130.511719 206.160156 140.511719 194.699219 138.003906 C 188.316406 136.59375 184.261719 131.648438 184.71875 121.011719 C 184.738281 120.304688 183.804688 120.007812 183.417969 120.601562 C 183.007812 121.238281 182.621094 121.898438 182.257812 122.558594 C 174.578125 135.613281 172.707031 150.441406 175.441406 164.542969 C 178.222656 178.644531 185.71875 192.015625 196.773438 202.019531 L 197.980469 203.132812 C 198.140625 203.292969 198.390625 203.089844 198.277344 202.882812 C 196.386719 199.648438 194.8125 196.503906 193.582031 193.40625 C 189.273438 182.882812 188.546875 173.199219 190.871094 164.613281 C 193.125 156 198.480469 148.53125 206.296875 142.425781 C 210.878906 138.917969 216.234375 135.933594 222.386719 133.425781 C 223.457031 132.972656 224.640625 133.496094 225.03125 134.542969 C 225.484375 135.546875 224.960938 136.730469 223.914062 137.183594 C 218.148438 139.578125 213.042969 142.425781 208.804688 145.660156 C 201.71875 151.21875 196.886719 157.914062 194.835938 165.660156 C 192.714844 173.40625 193.445312 182.222656 197.34375 191.878906 C 199.847656 197.917969 203.5625 204.273438 208.734375 210.949219 C 209.261719 211.609375 209.328125 212.472656 208.871094 213.269531 C 208.347656 214.207031 207.09375 214.523438 206.09375 214 C 201.71875 211.425781 197.617188 208.375 193.96875 205.070312 C 182.257812 194.410156 174.371094 180.308594 171.386719 165.273438 C 168.46875 150.304688 170.519531 134.429688 178.679688 120.441406 C 180.933594 116.660156 183.578125 113.015625 186.699219 109.574219 C 187.15625 109.050781 187.953125 108.777344 188.683594 108.984375 C 189.753906 109.1875 190.460938 110.304688 190.210938 111.445312 C 186.835938 126.476562 189.753906 132.699219 195.632812 134.019531 C 205.570312 136.207031 223.707031 126.59375 236.242188 119.984375 C 238.566406 118.734375 240.683594 117.617188 242.601562 116.613281 Z M 242.601562 116.613281"/><g clip-path="url(#a)"><path fill="#FF3D33" d="M 252.605469 151.242188 C 253.71875 151.035156 254.792969 151.765625 254.996094 152.902344 C 255.203125 154.019531 254.472656 155.089844 253.332031 155.296875 C 248.753906 156.160156 243.785156 158.417969 238.953125 160.601562 C 233.710938 162.925781 228.746094 165.183594 224.390625 165.707031 C 218.878906 166.320312 214.570312 164.566406 212.3125 157.9375 C 212.132812 157.367188 211.355469 157.300781 211.039062 157.800781 C 205.613281 166.664062 204.632812 175.226562 207.164062 183.453125 C 209.511719 191.058594 214.890625 198.488281 222.613281 205.546875 C 222.84375 205.753906 223.160156 205.503906 223.046875 205.230469 C 221.816406 202.699219 220.835938 200.21875 220.109375 197.894531 C 217.988281 190.945312 217.921875 184.839844 219.515625 179.691406 C 221.179688 174.386719 224.550781 170.101562 229.175781 166.707031 C 232.34375 164.476562 236.105469 162.675781 240.320312 161.355469 C 241.210938 161.082031 242.191406 161.378906 242.691406 162.152344 C 243.441406 163.3125 242.851562 164.863281 241.550781 165.25 C 237.769531 166.433594 234.394531 168.03125 231.546875 170.078125 C 227.652344 172.859375 224.800781 176.503906 223.390625 180.878906 C 222 185.320312 222.136719 190.605469 223.980469 196.640625 C 225.644531 201.949219 228.675781 207.828125 233.257812 214.25 C 233.78125 214.910156 233.847656 215.980469 233.324219 216.710938 C 232.59375 217.644531 231.34375 217.828125 230.40625 217.167969 C 228.8125 215.980469 227.21875 214.84375 225.78125 213.589844 C 214.386719 204.59375 206.433594 194.84375 203.265625 184.660156 C 200.03125 174.269531 201.742188 163.40625 209.832031 152.355469 C 210.285156 151.628906 210.832031 150.96875 211.355469 150.304688 C 211.699219 149.851562 212.15625 149.507812 212.746094 149.441406 C 213.863281 149.304688 214.933594 150.101562 215.070312 151.21875 C 216.074219 159.898438 219.445312 162.152344 223.890625 161.605469 C 227.742188 161.148438 232.4375 159.101562 237.335938 156.84375 C 242.347656 154.542969 247.566406 152.242188 252.605469 151.242188 Z M 252.605469 151.242188"/></g><g clip-path="url(#b)"><path fill="#FFCC17" d="M 122.117188 148.140625 C 121 148.347656 119.929688 147.6875 119.726562 146.546875 C 119.453125 145.429688 120.179688 144.359375 121.320312 144.15625 C 130.664062 142.242188 138.617188 147.390625 145.089844 151.628906 C 148.324219 153.746094 151.171875 155.523438 153.246094 155.863281 C 155.367188 156.136719 157.03125 153.953125 158.007812 146.523438 C 158.214844 145.410156 159.195312 144.613281 160.332031 144.792969 C 161.0625 144.863281 161.65625 145.316406 161.929688 145.910156 C 168.558594 158.027344 171.410156 172.128906 168.148438 185.570312 C 165.371094 197.234375 158.007812 208.351562 144.632812 217.144531 C 143.628906 217.734375 142.375 217.484375 141.785156 216.550781 C 141.261719 215.824219 141.328125 214.820312 141.851562 214.160156 C 150.125 203.363281 152.859375 193.359375 152.378906 184.820312 C 151.789062 173.292969 145.5 164.429688 139.253906 159.644531 C 138.390625 158.984375 138.183594 157.664062 138.867188 156.800781 C 139.597656 155.863281 140.851562 155.683594 141.785156 156.410156 C 148.734375 161.71875 155.820312 171.695312 156.484375 184.613281 C 156.800781 190.878906 155.59375 197.824219 152.128906 205.207031 C 152.039062 205.390625 152.289062 205.570312 152.425781 205.410156 C 158.648438 198.988281 162.386719 191.925781 164.164062 184.546875 C 166.601562 174.566406 165.300781 164.132812 161.519531 154.566406 C 161.289062 154.019531 160.515625 154.019531 160.289062 154.566406 C 158.511719 159.03125 155.914062 160.328125 152.632812 159.851562 C 149.714844 159.464844 146.480469 157.34375 142.832031 155.023438 C 137.019531 151.242188 129.796875 146.617188 122.117188 148.140625 Z M 122.117188 148.140625"/></g><g clip-path="url(#c)"><path fill="#262261" d="M 208.304688 103.105469 C 211.21875 103.105469 213.933594 104.289062 215.847656 106.296875 C 217.761719 108.207031 218.96875 110.875 218.96875 113.765625 C 218.96875 116.75 217.78125 119.394531 215.847656 121.308594 C 213.933594 123.289062 211.21875 124.496094 208.304688 124.496094 C 205.316406 124.496094 202.675781 123.3125 200.761719 121.308594 C 198.847656 119.394531 197.636719 116.730469 197.636719 113.765625 C 197.636719 110.851562 198.824219 108.207031 200.761719 106.296875 C 202.675781 104.289062 205.316406 103.105469 208.304688 103.105469 Z M 212.929688 109.144531 C 211.746094 107.957031 210.082031 107.230469 208.304688 107.230469 C 206.457031 107.230469 204.863281 107.957031 203.675781 109.144531 C 202.492188 110.328125 201.761719 111.992188 201.761719 113.765625 C 201.761719 115.613281 202.492188 117.273438 203.675781 118.390625 C 204.863281 119.574219 206.457031 120.304688 208.304688 120.304688 C 210.082031 120.304688 211.746094 119.574219 212.929688 118.390625 C 214.113281 117.273438 214.84375 115.613281 214.84375 113.765625 C 214.84375 111.96875 214.113281 110.328125 212.929688 109.144531 Z M 212.929688 109.144531"/></g><path fill="#FF3D33" d="M 228.5625 140.328125 C 230.679688 140.328125 232.59375 141.195312 233.984375 142.585938 C 235.375 143.972656 236.242188 145.886719 236.242188 148.003906 C 236.242188 150.125 235.375 152.105469 233.984375 153.496094 C 232.59375 154.886719 230.679688 155.683594 228.5625 155.683594 C 226.441406 155.683594 224.527344 154.886719 223.136719 153.496094 C 221.75 152.105469 220.882812 150.125 220.882812 148.003906 C 220.882812 145.886719 221.75 143.972656 223.136719 142.585938 C 224.527344 141.171875 226.441406 140.328125 228.5625 140.328125 Z M 231.070312 145.476562 C 230.40625 144.886719 229.542969 144.476562 228.5625 144.476562 C 227.582031 144.476562 226.648438 144.863281 226.054688 145.476562 C 225.394531 146.136719 224.984375 147.070312 224.984375 147.984375 C 224.984375 148.984375 225.371094 149.898438 226.054688 150.558594 C 226.648438 151.148438 227.582031 151.558594 228.5625 151.558594 C 229.542969 151.558594 230.40625 151.171875 231.070312 150.558594 C 231.730469 149.898438 232.140625 148.960938 232.140625 147.984375 C 232.140625 147.070312 231.753906 146.136719 231.070312 145.476562 Z M 231.070312 145.476562"/><path fill="#FFCC17" d="M 145.910156 131.308594 C 148.027344 131.308594 149.941406 132.171875 151.332031 133.5625 C 152.722656 134.953125 153.589844 136.867188 153.589844 138.984375 C 153.589844 141.101562 152.722656 143.015625 151.332031 144.40625 C 149.941406 145.796875 148.027344 146.660156 145.910156 146.660156 C 143.789062 146.660156 141.875 145.796875 140.484375 144.40625 C 139.09375 143.015625 138.230469 141.101562 138.230469 138.984375 C 138.230469 136.867188 139.09375 134.953125 140.484375 133.5625 C 141.851562 132.171875 143.789062 131.308594 145.910156 131.308594 Z M 148.414062 136.480469 C 147.824219 135.820312 146.890625 135.410156 145.910156 135.410156 C 144.90625 135.410156 144.0625 135.796875 143.402344 136.480469 C 142.742188 137.070312 142.332031 138.003906 142.332031 138.984375 C 142.332031 139.964844 142.71875 140.828125 143.402344 141.492188 C 144.0625 142.152344 144.929688 142.5625 145.910156 142.5625 C 146.910156 142.5625 147.824219 142.175781 148.414062 141.492188 C 149.078125 140.828125 149.488281 139.964844 149.488281 138.984375 C 149.488281 138.003906 149.078125 137.070312 148.414062 136.480469 Z M 148.414062 136.480469"/><g fill="#E4E4E4"><g><g><path d="M 2.253906 0 L 7.597656 0 C 7.234375 -1.167969 7.09375 -2.671875 7.09375 -4.507812 L 7.09375 -7.957031 L 19.253906 -7.957031 L 19.253906 -4.507812 C 19.253906 -2.617188 19.03125 -1.085938 18.753906 0 L 24.097656 0 C 23.761719 -1.085938 23.59375 -2.78125 23.59375 -4.675781 L 23.59375 -14.804688 C 23.59375 -16.695312 23.789062 -18.390625 24.097656 -19.476562 L 18.753906 -19.476562 C 19.058594 -18.390625 19.253906 -16.863281 19.253906 -14.96875 L 19.253906 -11.574219 L 7.09375 -11.574219 L 7.09375 -14.96875 C 7.09375 -16.835938 7.289062 -18.335938 7.597656 -19.476562 L 2.253906 -19.476562 C 2.558594 -18.390625 2.78125 -16.695312 2.78125 -14.804688 L 2.78125 -4.675781 C 2.78125 -2.78125 2.585938 -1.085938 2.253906 0 Z M 2.253906 0" transform="translate(55.66 255.015)"/></g></g></g><g fill="#E4E4E4"><g><g><path d="M -0.332031 0 L 5.121094 0 C 5.230469 -0.722656 5.703125 -1.640625 6.371094 -3.0625 L 7.179688 -4.5625 L 18.226562 -4.5625 L 19.03125 -3.089844 C 19.839844 -1.640625 20.171875 -0.75 20.285156 0 L 25.738281 0 C 24.988281 -1.085938 23.902344 -2.867188 22.984375 -4.675781 L 17.640625 -14.832031 C 16.890625 -16.359375 16.390625 -18.226562 16.136719 -19.476562 L 9.320312 -19.476562 C 9.125 -18.390625 8.652344 -16.640625 7.734375 -14.804688 L 2.449219 -4.675781 C 1.503906 -2.894531 0.417969 -1.085938 -0.332031 0 Z M 8.792969 -7.875 L 11.351562 -12.828125 C 11.851562 -13.914062 12.1875 -14.804688 12.578125 -15.914062 L 12.828125 -15.914062 C 13.1875 -14.832031 13.550781 -13.882812 14.023438 -12.855469 L 16.613281 -7.875 Z M 8.792969 -7.875" transform="translate(88.796 255.015)"/></g></g></g><g fill="#E4E4E4"><g><g><path d="M 2.253906 0 L 7.597656 0 C 7.261719 -1.085938 7.09375 -2.726562 7.09375 -4.589844 L 7.125 -10.519531 L 7.347656 -10.519531 C 8.042969 -6.707031 11.324219 -4.980469 15.777344 -4.980469 C 20.394531 -4.980469 23.816406 -7.707031 23.816406 -12.355469 C 23.816406 -16.945312 19.949219 -19.476562 14.71875 -19.476562 L 2.253906 -19.476562 C 2.558594 -18.390625 2.78125 -16.695312 2.78125 -14.804688 L 2.78125 -4.675781 C 2.78125 -2.78125 2.585938 -1.085938 2.253906 0 Z M 14.136719 -8.515625 C 10.628906 -8.515625 7.152344 -10.488281 7.125 -13.882812 L 7.125 -15.777344 C 9.320312 -16 11.546875 -16.027344 14.050781 -16.027344 C 17.5 -16.027344 19.476562 -14.636719 19.476562 -12.355469 C 19.476562 -9.960938 16.972656 -8.515625 14.136719 -8.515625 Z M 14.136719 -8.515625" transform="translate(120.985 255.015)"/></g></g></g><g fill="#E4E4E4"><g><g><path d="M 2.253906 0 L 7.597656 0 C 7.289062 -1.085938 7.09375 -2.78125 7.09375 -4.675781 L 7.09375 -14.804688 C 7.09375 -16.695312 7.289062 -18.390625 7.597656 -19.476562 L 2.253906 -19.476562 C 2.558594 -18.390625 2.753906 -16.695312 2.753906 -14.804688 L 2.753906 -4.675781 C 2.753906 -2.78125 2.585938 -1.085938 2.253906 0 Z M 2.253906 0" transform="translate(183.694 255.015)"/></g></g></g><g fill="#E4E4E4"><g><g><path d="M 2.253906 0 L 7.597656 0 C 7.347656 -0.972656 7.09375 -3.03125 7.09375 -4.980469 L 7.09375 -14.105469 L 7.429688 -14.105469 L 20.953125 0 L 24.929688 0 L 24.929688 -14.804688 C 24.929688 -16.695312 25.125 -18.390625 25.433594 -19.476562 L 20.089844 -19.476562 C 20.339844 -18.585938 20.589844 -16.804688 20.589844 -14.886719 L 20.589844 -5.816406 L 20.230469 -5.816406 L 7.289062 -19.476562 L 2.253906 -19.476562 C 2.585938 -18.390625 2.78125 -16.695312 2.78125 -14.804688 L 2.78125 -4.675781 C 2.78125 -2.78125 2.558594 -1.085938 2.253906 0 Z M 2.253906 0" transform="translate(200.36 255.015)"/></g></g></g><g fill="#E4E4E4"><g><g><path d="M 2.253906 0 L 21.871094 0 L 22.675781 -4.425781 C 21.871094 -3.980469 20.617188 -3.699219 18.421875 -3.699219 L 7.09375 -3.699219 L 7.09375 -7.957031 L 16.054688 -7.957031 C 17.390625 -7.957031 18.308594 -7.902344 18.976562 -7.789062 L 18.976562 -11.742188 C 18.308594 -11.628906 17.390625 -11.574219 16.054688 -11.574219 L 7.09375 -11.574219 L 7.09375 -15.777344 L 18.226562 -15.777344 C 20.144531 -15.777344 21.371094 -15.582031 22.007812 -15.277344 L 21.3125 -19.476562 L 2.253906 -19.476562 C 2.558594 -18.390625 2.78125 -16.695312 2.78125 -14.804688 L 2.78125 -4.675781 C 2.78125 -2.78125 2.585938 -1.085938 2.253906 0 Z M 2.253906 0" transform="translate(234.83 255.015)"/></g></g></g><g fill="#E4E4E4"><g><g><path d="M 12.074219 0.390625 C 18.421875 0.390625 22.453125 -1.863281 22.453125 -5.59375 C 22.453125 -13.550781 5.898438 -9.851562 5.898438 -14.078125 C 5.898438 -15.75 8.679688 -16.195312 11.824219 -16.195312 C 15.109375 -16.195312 18.449219 -15.386719 20.507812 -14.191406 L 20.507812 -18.308594 C 18.308594 -19.226562 14.832031 -19.867188 11.660156 -19.867188 C 6.011719 -19.867188 1.417969 -17.890625 1.417969 -14.136719 C 1.417969 -6.09375 17.945312 -9.628906 17.945312 -5.566406 C 17.945312 -3.839844 15.527344 -3.253906 11.992188 -3.253906 C 7.984375 -3.253906 4.144531 -4.144531 1.222656 -6.011719 L 1.03125 -1.585938 C 4.0625 -0.390625 8.710938 0.390625 12.074219 0.390625 Z M 12.074219 0.390625" transform="translate(265.49 255.015)"/></g></g></g><g fill="#E4E4E4"><g><g><path d="M 0.847656 0 L 2.863281 0 C 2.726562 -0.441406 2.671875 -1.007812 2.671875 -1.699219 L 2.671875 -3 L 7.253906 -3 L 7.253906 -1.699219 C 7.253906 -0.984375 7.171875 -0.410156 7.066406 0 L 9.078125 0 C 8.953125 -0.410156 8.890625 -1.046875 8.890625 -1.761719 L 8.890625 -5.578125 C 8.890625 -6.289062 8.964844 -6.929688 9.078125 -7.339844 L 7.066406 -7.339844 C 7.183594 -6.929688 7.253906 -6.355469 7.253906 -5.640625 L 7.253906 -4.363281 L 2.671875 -4.363281 L 2.671875 -5.640625 C 2.671875 -6.34375 2.746094 -6.910156 2.863281 -7.339844 L 0.847656 -7.339844 C 0.964844 -6.929688 1.046875 -6.289062 1.046875 -5.578125 L 1.046875 -1.761719 C 1.046875 -1.046875 0.976562 -0.410156 0.847656 0 Z M 0.847656 0" transform="translate(100.113 272.934)"/></g></g></g><g fill="#E4E4E4"><g><g><path d="M 4.917969 0.148438 C 7.445312 0.148438 8.871094 -1.121094 8.871094 -3.207031 L 8.871094 -5.578125 C 8.871094 -6.289062 8.945312 -6.929688 9.058594 -7.339844 L 7.046875 -7.339844 C 7.160156 -6.929688 7.234375 -6.257812 7.234375 -5.558594 L 7.234375 -3.449219 C 7.234375 -2.117188 6.289062 -1.277344 4.917969 -1.277344 C 3.542969 -1.277344 2.609375 -2.117188 2.609375 -3.449219 L 2.609375 -5.558594 C 2.609375 -6.257812 2.683594 -6.929688 2.789062 -7.339844 L 0.785156 -7.339844 C 0.902344 -6.929688 0.976562 -6.289062 0.976562 -5.578125 L 0.976562 -3.207031 C 0.976562 -1.070312 2.464844 0.148438 4.917969 0.148438 Z M 4.917969 0.148438" transform="translate(112.593 272.934)"/></g></g></g><g fill="#E4E4E4"><g><g><path d="M 0.847656 0 L 2.863281 0 C 2.757812 -0.378906 2.671875 -1.078125 2.671875 -1.804688 L 2.671875 -5.296875 L 2.757812 -5.296875 L 5.734375 0 L 6.34375 0 L 9.320312 -5.296875 L 9.4375 -5.296875 L 9.4375 -1.804688 C 9.4375 -1.078125 9.351562 -0.378906 9.246094 0 L 11.261719 0 C 11.144531 -0.410156 11.070312 -1.046875 11.070312 -1.761719 L 11.070312 -5.578125 C 11.070312 -6.289062 11.136719 -6.929688 11.261719 -7.339844 L 9.121094 -7.339844 L 7.046875 -3.617188 C 6.699219 -2.988281 6.4375 -2.507812 6.132812 -1.824219 L 6.019531 -1.824219 C 5.703125 -2.515625 5.441406 -3.019531 5.105469 -3.617188 L 3.039062 -7.339844 L 0.847656 -7.339844 C 0.976562 -6.929688 1.039062 -6.289062 1.039062 -5.578125 L 1.039062 -1.761719 C 1.039062 -1.046875 0.964844 -0.410156 0.847656 0 Z M 0.847656 0" transform="translate(124.99 272.934)"/></g></g></g><g fill="#E4E4E4"><g><g><path d="M -0.125 0 L 1.929688 0 C 1.972656 -0.273438 2.148438 -0.617188 2.402344 -1.152344 L 2.707031 -1.71875 L 6.867188 -1.71875 L 7.171875 -1.164062 C 7.476562 -0.617188 7.601562 -0.28125 7.644531 0 L 9.699219 0 C 9.414062 -0.410156 9.007812 -1.078125 8.660156 -1.761719 L 6.648438 -5.589844 C 6.363281 -6.164062 6.175781 -6.867188 6.082031 -7.339844 L 3.511719 -7.339844 C 3.4375 -6.929688 3.261719 -6.269531 2.914062 -5.578125 L 0.921875 -1.761719 C 0.566406 -1.089844 0.15625 -0.410156 -0.125 0 Z M 3.3125 -2.96875 L 4.277344 -4.832031 C 4.464844 -5.242188 4.59375 -5.578125 4.738281 -5.996094 L 4.832031 -5.996094 C 4.96875 -5.589844 5.105469 -5.230469 5.285156 -4.84375 L 6.257812 -2.96875 Z M 3.3125 -2.96875" transform="translate(139.65 272.934)"/></g></g></g><g fill="#E4E4E4"><g><g><path d="M 0.847656 0 L 2.863281 0 C 2.769531 -0.367188 2.671875 -1.144531 2.671875 -1.875 L 2.671875 -5.316406 L 2.800781 -5.316406 L 7.894531 0 L 9.394531 0 L 9.394531 -5.578125 C 9.394531 -6.289062 9.46875 -6.929688 9.582031 -7.339844 L 7.570312 -7.339844 C 7.664062 -7.003906 7.757812 -6.332031 7.757812 -5.609375 L 7.757812 -2.191406 L 7.621094 -2.191406 L 2.746094 -7.339844 L 0.847656 -7.339844 C 0.976562 -6.929688 1.046875 -6.289062 1.046875 -5.578125 L 1.046875 -1.761719 C 1.046875 -1.046875 0.964844 -0.410156 0.847656 0 Z M 0.847656 0" transform="translate(151.773 272.934)"/></g></g></g><g fill="#E4E4E4"><g><g><path d="M 8.429688 0.15625 C 8.964844 0.15625 9.46875 -0.0625 9.710938 -0.386719 L 9.636719 -2.203125 C 9.445312 -1.75 9.195312 -1.46875 8.628906 -1.46875 C 7.476562 -1.46875 7.726562 -3.324219 5.527344 -3.324219 L 5.441406 -3.324219 L 5.441406 -3.40625 L 6.082031 -3.40625 C 7.769531 -3.40625 8.914062 -4.234375 8.914062 -5.421875 C 8.914062 -6.65625 7.695312 -7.339844 5.933594 -7.339844 L 0.859375 -7.339844 C 0.976562 -6.929688 1.046875 -6.289062 1.046875 -5.578125 L 1.046875 -1.761719 C 1.046875 -1.046875 0.976562 -0.417969 0.859375 0 L 2.871094 0 C 2.746094 -0.417969 2.683594 -0.984375 2.683594 -1.6875 L 2.683594 -2.777344 C 2.925781 -2.851562 3.753906 -2.871094 4.058594 -2.871094 C 7.066406 -2.871094 5.691406 0.15625 8.429688 0.15625 Z M 2.683594 -4.035156 L 2.683594 -5.925781 L 5.765625 -5.925781 C 6.667969 -5.925781 7.277344 -5.566406 7.277344 -4.980469 C 7.277344 -4.371094 6.65625 -4.035156 5.691406 -4.035156 Z M 2.683594 -4.035156" transform="translate(170.26 272.934)"/></g></g></g><g fill="#E4E4E4"><g><g><path d="M 0.847656 0 L 8.242188 0 L 8.546875 -1.667969 C 8.242188 -1.5 7.769531 -1.394531 6.941406 -1.394531 L 2.671875 -1.394531 L 2.671875 -3 L 6.050781 -3 C 6.554688 -3 6.898438 -2.976562 7.152344 -2.9375 L 7.152344 -4.425781 C 6.898438 -4.382812 6.554688 -4.363281 6.050781 -4.363281 L 2.671875 -4.363281 L 2.671875 -5.945312 L 6.867188 -5.945312 C 7.589844 -5.945312 8.050781 -5.871094 8.292969 -5.757812 L 8.03125 -7.339844 L 0.847656 -7.339844 C 0.964844 -6.929688 1.046875 -6.289062 1.046875 -5.578125 L 1.046875 -1.761719 C 1.046875 -1.046875 0.976562 -0.410156 0.847656 0 Z M 0.847656 0" transform="translate(182.636 272.934)"/></g></g></g><g fill="#E4E4E4"><g><g><path d="M 4.550781 0.148438 C 6.941406 0.148438 8.460938 -0.703125 8.460938 -2.109375 C 8.460938 -5.105469 2.222656 -3.710938 2.222656 -5.304688 C 2.222656 -5.933594 3.269531 -6.101562 4.457031 -6.101562 C 5.691406 -6.101562 6.953125 -5.796875 7.726562 -5.347656 L 7.726562 -6.898438 C 6.898438 -7.246094 5.589844 -7.484375 4.394531 -7.484375 C 2.265625 -7.484375 0.535156 -6.742188 0.535156 -5.328125 C 0.535156 -2.296875 6.761719 -3.628906 6.761719 -2.097656 C 6.761719 -1.445312 5.851562 -1.226562 4.519531 -1.226562 C 3.007812 -1.226562 1.5625 -1.5625 0.460938 -2.265625 L 0.386719 -0.597656 C 1.53125 -0.148438 3.28125 0.148438 4.550781 0.148438 Z M 4.550781 0.148438" transform="translate(194.184 272.934)"/></g></g></g><g fill="#E4E4E4"><g><g><path d="M 5.011719 0.148438 C 7.632812 0.148438 9.550781 -1.289062 9.550781 -3.667969 C 9.550781 -6.050781 7.632812 -7.484375 5.011719 -7.484375 C 2.390625 -7.484375 0.472656 -6.050781 0.472656 -3.667969 C 0.472656 -1.289062 2.390625 0.148438 5.011719 0.148438 Z M 5.011719 -1.152344 C 3.367188 -1.152344 2.128906 -2.117188 2.128906 -3.667969 C 2.128906 -5.230469 3.367188 -6.1875 5.011719 -6.1875 C 6.65625 -6.1875 7.894531 -5.230469 7.894531 -3.667969 C 7.894531 -2.117188 6.65625 -1.152344 5.011719 -1.152344 Z M 5.011719 -1.152344" transform="translate(205.606 272.934)"/></g></g></g><g fill="#E4E4E4"><g><g><path d="M 5.304688 0.148438 C 6.636719 0.148438 7.769531 -0.09375 8.617188 -0.492188 L 8.617188 -2.179688 C 7.90625 -1.625 6.773438 -1.277344 5.597656 -1.277344 C 3.628906 -1.277344 2.117188 -2.128906 2.117188 -3.660156 C 2.117188 -5.160156 3.585938 -6.058594 5.472656 -6.058594 C 6.59375 -6.058594 7.601562 -5.726562 8.1875 -5.273438 L 8.324219 -6.847656 C 7.589844 -7.222656 6.480469 -7.484375 5.273438 -7.484375 C 2.601562 -7.484375 0.472656 -6.113281 0.472656 -3.660156 C 0.472656 -1.195312 2.640625 0.148438 5.304688 0.148438 Z M 5.304688 0.148438" transform="translate(242.953 272.934)"/></g></g></g></svg>